<svg width="18" height="18" viewBox="0 0 18 18" fill="none" xmlns="http://www.w3.org/2000/svg">
<rect width="18" height="18" rx="9" fill="#57AE00"/>
<path d="M5.48809 8.43056C5.1736 8.16099 4.70012 8.19741 4.43056 8.51191C4.16099 8.8264 4.19741 9.29988 4.51191 9.56944L5.48809 8.43056ZM8.5 12L8.01191 12.5694C8.1643 12.7001 8.3627 12.7642 8.56271 12.7474C8.76273 12.7306 8.94767 12.6343 9.07617 12.4801L8.5 12ZM14.0762 6.48014C14.3413 6.16193 14.2983 5.68901 13.9801 5.42383C13.6619 5.15866 13.189 5.20165 12.9238 5.51986L14.0762 6.48014ZM4.51191 9.56944L8.01191 12.5694L8.98809 11.4306L5.48809 8.43056L4.51191 9.56944ZM9.07617 12.4801L14.0762 6.48014L12.9238 5.51986L7.92383 11.5199L9.07617 12.4801Z" fill="white"/>
</svg>
